<svg width="100" height="100" viewBox="0 0 100 100" xmlns="http://www.w3.org/2000/svg">
  <style>
    .xwui-icon-fill { fill: var(--icons-color-main, black); }
    .xwui-icon-secondary { fill: var(--icons-color-secondary, white); }
    .xwui-icon-accent { fill: var(--icons-color-accent, gray); }
  </style>
  <!-- Input field background -->
  <rect x="10" y="30" width="60" height="20" rx="3" class="xwui-icon-secondary" stroke="var(--icons-color-main, black)" stroke-width="2"/>
  <!-- Text cursor -->
  <line x1="25" y1="33" x2="25" y2="47" class="xwui-icon-fill" stroke-width="2"/>
  <!-- Calendar icon button -->
  <rect x="75" y="30" width="15" height="20" rx="3" class="xwui-icon-fill"/>
  <rect x="78" y="34" width="9" height="12" rx="1" class="xwui-icon-secondary" stroke="var(--icons-color-secondary, white)" stroke-width="1"/>
  <circle cx="82" cy="39" r="1" class="xwui-icon-secondary"/>
  <circle cx="85" cy="39" r="1" class="xwui-icon-secondary"/>
  <!-- Calendar popup -->
  <rect x="40" y="55" width="50" height="40" rx="4" class="xwui-icon-secondary" stroke="var(--icons-color-main, black)" stroke-width="2.5"/>
  <rect x="40" y="55" width="50" height="10" rx="4" class="xwui-icon-fill"/>
  <line x1="47" y1="65" x2="47" y2="93" class="xwui-icon-accent" stroke-width="1"/>
  <line x1="57" y1="65" x2="57" y2="93" class="xwui-icon-accent" stroke-width="1"/>
  <line x1="67" y1="65" x2="67" y2="93" class="xwui-icon-accent" stroke-width="1"/>
  <line x1="77" y1="65" x2="77" y2="93" class="xwui-icon-accent" stroke-width="1"/>
  <line x1="40" y1="72" x2="90" y2="72" class="xwui-icon-accent" stroke-width="1"/>
  <line x1="40" y1="79" x2="90" y2="79" class="xwui-icon-accent" stroke-width="1"/>
  <circle cx="52" cy="76" r="2" class="xwui-icon-fill"/>
  <circle cx="62" cy="76" r="2" class="xwui-icon-fill"/>
</svg>

