<svg width="100" height="100" viewBox="0 0 100 100" xmlns="http://www.w3.org/2000/svg">
  <style>
    .xwui-icon-fill { fill: var(--icons-color-main, black); }
    .xwui-icon-secondary { fill: var(--icons-color-secondary, white); }
    .xwui-icon-accent { fill: var(--icons-color-accent, gray); }
  </style>
  <circle cx="30" cy="50" r="15" class="xwui-icon-fill"/>
  <circle cx="30" cy="45" r="6" class="xwui-icon-secondary"/>
  <path d="M 20 60 Q 20 55, 30 55 Q 40 55, 40 60" class="xwui-icon-secondary" stroke-width="0"/>
  <ellipse cx="30" cy="60" rx="10" ry="4" class="xwui-icon-secondary"/>
  <circle cx="50" cy="50" r="15" class="xwui-icon-fill"/>
  <circle cx="50" cy="45" r="6" class="xwui-icon-secondary"/>
  <path d="M 40 60 Q 40 55, 50 55 Q 60 55, 60 60" class="xwui-icon-secondary" stroke-width="0"/>
  <ellipse cx="50" cy="60" rx="10" ry="4" class="xwui-icon-secondary"/>
  <circle cx="70" cy="50" r="15" class="xwui-icon-fill"/>
  <circle cx="70" cy="45" r="6" class="xwui-icon-secondary"/>
  <path d="M 60 60 Q 60 55, 70 55 Q 80 55, 80 60" class="xwui-icon-secondary" stroke-width="0"/>
  <ellipse cx="70" cy="60" rx="10" ry="4" class="xwui-icon-secondary"/>
</svg>

