<svg width="100" height="100" viewBox="0 0 100 100" xmlns="http://www.w3.org/2000/svg">
  <style>
    .xwui-icon-fill { fill: var(--icons-color-main, black); }
    .xwui-icon-secondary { fill: var(--icons-color-secondary, white); }
    .xwui-icon-accent { fill: var(--icons-color-accent, gray); }
  </style>
  <!-- Calendar container -->
  <rect x="12" y="15" width="76" height="70" rx="4" class="xwui-icon-secondary" stroke="var(--icons-color-main, black)" stroke-width="2.5"/>
  <!-- Calendar header -->
  <rect x="12" y="15" width="76" height="16" rx="4" class="xwui-icon-fill"/>
  <!-- Calendar grid lines -->
  <line x1="25" y1="31" x2="25" y2="85" class="xwui-icon-accent" stroke-width="1.5"/>
  <line x1="38" y1="31" x2="38" y2="85" class="xwui-icon-accent" stroke-width="1.5"/>
  <line x1="51" y1="31" x2="51" y2="85" class="xwui-icon-accent" stroke-width="1.5"/>
  <line x1="64" y1="31" x2="64" y2="85" class="xwui-icon-accent" stroke-width="1.5"/>
  <line x1="77" y1="31" x2="77" y2="85" class="xwui-icon-accent" stroke-width="1.5"/>
  <line x1="12" y1="44" x2="88" y2="44" class="xwui-icon-accent" stroke-width="1.5"/>
  <line x1="12" y1="57" x2="88" y2="57" class="xwui-icon-accent" stroke-width="1.5"/>
  <line x1="12" y1="70" x2="88" y2="70" class="xwui-icon-accent" stroke-width="1.5"/>
  <!-- Selected date highlight -->
  <circle cx="44" cy="50" r="6" class="xwui-icon-fill" opacity="0.3"/>
  <!-- Random filled days -->
  <circle cx="31" cy="50" r="3" class="xwui-icon-fill"/>
  <circle cx="57" cy="50" r="3" class="xwui-icon-fill"/>
  <circle cx="44" cy="63" r="3" class="xwui-icon-fill"/>
  <circle cx="31" cy="76" r="3" class="xwui-icon-fill"/>
  <circle cx="70" cy="63" r="3" class="xwui-icon-fill"/>
</svg>

