<svg width="100" height="100" viewBox="0 0 100 100" xmlns="http://www.w3.org/2000/svg">
  <style>
    .xwui-icon-fill { fill: var(--icons-color-main, black); }
    .xwui-icon-secondary { fill: var(--icons-color-secondary, white); }
    .xwui-icon-accent { fill: var(--icons-color-accent, gray); }
  </style>
  <!-- Star 1 - Filled -->
  <path d="M 20 40 L 23 50 L 33 50 L 25 56 L 28 66 L 20 60 L 12 66 L 15 56 L 7 50 L 17 50 Z" class="xwui-icon-fill"/>
  <!-- Star 2 - Filled -->
  <path d="M 40 40 L 43 50 L 53 50 L 45 56 L 48 66 L 40 60 L 32 66 L 35 56 L 27 50 L 37 50 Z" class="xwui-icon-fill"/>
  <!-- Star 3 - Filled -->
  <path d="M 60 40 L 63 50 L 73 50 L 65 56 L 68 66 L 60 60 L 52 66 L 55 56 L 47 50 L 57 50 Z" class="xwui-icon-fill"/>
  <!-- Star 4 - Half -->
  <path d="M 80 40 L 83 50 L 93 50 L 85 56 L 88 66 L 80 60 L 72 66 L 75 56 L 67 50 L 77 50 Z" class="xwui-icon-accent" stroke="var(--icons-color-main, black)" stroke-width="1" fill="transparent"/>
  <path d="M 80 40 L 83 50 L 80 50 L 80 40 Z" class="xwui-icon-fill"/>
  <!-- Star 5 - Empty -->
  <path d="M 20 70 L 23 80 L 33 80 L 25 86 L 28 96 L 20 90 L 12 96 L 15 86 L 7 80 L 17 80 Z" class="xwui-icon-accent" stroke="var(--icons-color-main, black)" stroke-width="1" fill="transparent"/>
</svg>

