<svg width="100" height="100" viewBox="0 0 100 100" xmlns="http://www.w3.org/2000/svg">
  <style>
    .xwui-icon-fill { fill: var(--icons-color-main, black); }
    .xwui-icon-secondary { fill: var(--icons-color-secondary, white); }
    .xwui-icon-accent { fill: var(--icons-color-accent, gray); }
    .xwui-icon-connection { stroke: var(--icons-color-accent, gray); }
  </style>
  <!-- Workflow nodes and connections -->
  <!-- Node 1 (top left) -->
  <rect x="8" y="8" width="20" height="20" rx="4" class="xwui-icon-secondary" stroke="var(--icons-color-main, black)" stroke-width="2"/>
  <circle cx="18" cy="18" r="3" class="xwui-icon-fill"/>
  
  <!-- Node 2 (top right) -->
  <rect x="72" y="8" width="20" height="20" rx="4" class="xwui-icon-secondary" stroke="var(--icons-color-main, black)" stroke-width="2"/>
  <circle cx="82" cy="18" r="3" class="xwui-icon-fill"/>
  
  <!-- Node 3 (middle left) -->
  <rect x="8" y="40" width="20" height="20" rx="4" class="xwui-icon-secondary" stroke="var(--icons-color-main, black)" stroke-width="2"/>
  <circle cx="18" cy="50" r="3" class="xwui-icon-fill"/>
  
  <!-- Node 4 (middle center) -->
  <rect x="40" y="40" width="20" height="20" rx="4" class="xwui-icon-secondary" stroke="var(--icons-color-main, black)" stroke-width="2"/>
  <circle cx="50" cy="50" r="3" class="xwui-icon-fill"/>
  
  <!-- Node 5 (middle right) -->
  <rect x="72" y="40" width="20" height="20" rx="4" class="xwui-icon-secondary" stroke="var(--icons-color-main, black)" stroke-width="2"/>
  <circle cx="82" cy="50" r="3" class="xwui-icon-fill"/>
  
  <!-- Node 6 (bottom) -->
  <rect x="40" y="72" width="20" height="20" rx="4" class="xwui-icon-secondary" stroke="var(--icons-color-main, black)" stroke-width="2"/>
  <circle cx="50" cy="82" r="3" class="xwui-icon-fill"/>
  
  <!-- Connections (arrows) -->
  <!-- Connection from node 1 to node 2 -->
  <line x1="28" y1="18" x2="72" y2="18" class="xwui-icon-connection" stroke-width="2" stroke-linecap="round"/>
  <polygon points="68,16 72,18 68,20" class="xwui-icon-connection" fill="var(--icons-color-accent, gray)"/>
  
  <!-- Connection from node 1 to node 3 -->
  <line x1="18" y1="28" x2="18" y2="40" class="xwui-icon-connection" stroke-width="2" stroke-linecap="round"/>
  <polygon points="16,36 18,40 20,36" class="xwui-icon-connection" fill="var(--icons-color-accent, gray)"/>
  
  <!-- Connection from node 3 to node 4 -->
  <line x1="28" y1="50" x2="40" y2="50" class="xwui-icon-connection" stroke-width="2" stroke-linecap="round"/>
  <polygon points="36,48 40,50 36,52" class="xwui-icon-connection" fill="var(--icons-color-accent, gray)"/>
  
  <!-- Connection from node 4 to node 5 -->
  <line x1="60" y1="50" x2="72" y2="50" class="xwui-icon-connection" stroke-width="2" stroke-linecap="round"/>
  <polygon points="68,48 72,50 68,52" class="xwui-icon-connection" fill="var(--icons-color-accent, gray)"/>
  
  <!-- Connection from node 4 to node 6 -->
  <line x1="50" y1="60" x2="50" y2="72" class="xwui-icon-connection" stroke-width="2" stroke-linecap="round"/>
  <polygon points="48,68 50,72 52,68" class="xwui-icon-connection" fill="var(--icons-color-accent, gray)"/>
</svg>

