<svg width="100" height="100" viewBox="0 0 100 100" xmlns="http://www.w3.org/2000/svg">
  <style>
    .xwui-icon-fill { fill: var(--icons-color-main, black); }
    .xwui-icon-secondary { fill: var(--icons-color-secondary, white); }
    .xwui-icon-accent { fill: var(--icons-color-accent, gray); }
  </style>
  <!-- Previous arrow -->
  <polygon points="15,50 25,40 25,45 30,45 30,55 25,55 25,60" class="xwui-icon-accent" stroke="var(--icons-color-main, black)" stroke-width="1.5" fill="none"/>
  <!-- Page numbers -->
  <rect x="35" y="40" width="8" height="20" rx="2" class="xwui-icon-secondary" stroke="var(--icons-color-main, black)" stroke-width="1.5"/>
  <text x="39" y="54" font-family="Arial" font-size="9" text-anchor="middle" fill="var(--icons-color-main, black)">1</text>
  
  <rect x="47" y="40" width="8" height="20" rx="2" class="xwui-icon-fill"/>
  <text x="51" y="54" font-family="Arial" font-size="9" text-anchor="middle" fill="var(--icons-color-secondary, white)">2</text>
  
  <rect x="59" y="40" width="8" height="20" rx="2" class="xwui-icon-secondary" stroke="var(--icons-color-main, black)" stroke-width="1.5"/>
  <text x="63" y="54" font-family="Arial" font-size="9" text-anchor="middle" fill="var(--icons-color-main, black)">3</text>
  
  <text x="72" y="54" font-family="Arial" font-size="8" fill="var(--icons-color-main, black)">...</text>
  
  <rect x="80" y="40" width="8" height="20" rx="2" class="xwui-icon-secondary" stroke="var(--icons-color-main, black)" stroke-width="1.5"/>
  <text x="84" y="54" font-family="Arial" font-size="9" text-anchor="middle" fill="var(--icons-color-main, black)">10</text>
  <!-- Next arrow -->
  <polygon points="85,50 75,40 75,45 70,45 70,55 75,55 75,60" class="xwui-icon-fill"/>
</svg>

