<svg width="100" height="100" viewBox="0 0 100 100" xmlns="http://www.w3.org/2000/svg">
  <style>
    .xwui-icon-fill { fill: var(--icons-color-main, black); }
    .xwui-icon-secondary { fill: var(--icons-color-secondary, white); }
    .xwui-icon-accent { fill: var(--icons-color-accent, gray); }
  </style>
  <!-- Accordion panels -->
  <rect x="15" y="15" width="70" height="18" rx="3" class="xwui-icon-secondary" stroke="var(--icons-color-main, black)" stroke-width="2"/>
  <text x="20" y="28" font-family="Arial" font-size="10" fill="var(--icons-color-main, black)">Panel 1</text>
  <polygon points="75,20 80,25 75,30" class="xwui-icon-fill"/>
  
  <rect x="15" y="33" width="70" height="18" rx="3" class="xwui-icon-fill" stroke="var(--icons-color-main, black)" stroke-width="2"/>
  <text x="20" y="46" font-family="Arial" font-size="10" fill="var(--icons-color-secondary, white)">Panel 2</text>
  <polygon points="75,38 80,43 75,48" class="xwui-icon-secondary"/>
  <line x1="20" y1="55" x2="70" y2="55" class="xwui-icon-secondary" stroke-width="1.5"/>
  <line x1="20" y1="60" x2="60" y2="60" class="xwui-icon-secondary" stroke-width="1.5"/>
  
  <rect x="15" y="51" width="70" height="18" rx="3" class="xwui-icon-secondary" stroke="var(--icons-color-main, black)" stroke-width="2"/>
  <text x="20" y="64" font-family="Arial" font-size="10" fill="var(--icons-color-main, black)">Panel 3</text>
  <polygon points="75,56 80,61 75,66" class="xwui-icon-fill"/>
  
  <rect x="15" y="69" width="70" height="18" rx="3" class="xwui-icon-secondary" stroke="var(--icons-color-main, black)" stroke-width="2"/>
  <text x="20" y="82" font-family="Arial" font-size="10" fill="var(--icons-color-main, black)">Panel 4</text>
  <polygon points="75,74 80,79 75,84" class="xwui-icon-fill"/>
</svg>

